<mxfile host="app.diagrams.net" modified="2021-07-27T22:13:55.757Z" agent="5.0 (Windows NT 10.0; Win64; x64) AppleWebKit/537.36 (KHTML, like Gecko) Chrome/91.0.4472.164 Safari/537.36" etag="-kiUWJzkBJwKhiPdkCUA" version="14.9.2" type="github">
  <diagram id="R2lEEEUBdFMjLlhIrx00" name="Page-1">
    <mxGraphModel dx="1185" dy="635" grid="0" gridSize="10" guides="1" tooltips="1" connect="1" arrows="1" fold="1" page="1" pageScale="1" pageWidth="850" pageHeight="1100" math="0" shadow="0" extFonts="Permanent Marker^https://fonts.googleapis.com/css?family=Permanent+Marker">
      <root>
        <mxCell id="0" />
        <mxCell id="1" parent="0" />
        <mxCell id="K0u-qsTUmGktedS28R4--2" value="Accounts" style="rounded=0;whiteSpace=wrap;html=1;" vertex="1" parent="1">
          <mxGeometry x="45" y="53" width="120" height="60" as="geometry" />
        </mxCell>
        <mxCell id="K0u-qsTUmGktedS28R4--4" value="Basic Films / Shows" style="rounded=0;whiteSpace=wrap;html=1;" vertex="1" parent="1">
          <mxGeometry x="644" y="31" width="120" height="60" as="geometry" />
        </mxCell>
        <mxCell id="K0u-qsTUmGktedS28R4--5" value="Add-On 1" style="rounded=0;whiteSpace=wrap;html=1;" vertex="1" parent="1">
          <mxGeometry x="644" y="100.83" width="120" height="60" as="geometry" />
        </mxCell>
        <mxCell id="K0u-qsTUmGktedS28R4--7" value="Users" style="rounded=0;whiteSpace=wrap;html=1;" vertex="1" parent="1">
          <mxGeometry x="45" y="160.83333333333337" width="120" height="60" as="geometry" />
        </mxCell>
        <mxCell id="K0u-qsTUmGktedS28R4--11" value="" style="endArrow=none;html=1;exitX=0.361;exitY=0.014;exitDx=0;exitDy=0;exitPerimeter=0;" edge="1" parent="1" source="K0u-qsTUmGktedS28R4--7">
          <mxGeometry width="50" height="50" relative="1" as="geometry">
            <mxPoint x="53" y="201" as="sourcePoint" />
            <mxPoint x="103" y="151" as="targetPoint" />
          </mxGeometry>
        </mxCell>
        <mxCell id="K0u-qsTUmGktedS28R4--12" value="" style="endArrow=none;html=1;" edge="1" parent="1">
          <mxGeometry width="50" height="50" relative="1" as="geometry">
            <mxPoint x="103" y="151" as="sourcePoint" />
            <mxPoint x="117" y="160" as="targetPoint" />
          </mxGeometry>
        </mxCell>
        <mxCell id="K0u-qsTUmGktedS28R4--13" value="" style="endArrow=none;html=1;" edge="1" parent="1">
          <mxGeometry width="50" height="50" relative="1" as="geometry">
            <mxPoint x="102.99999999999999" y="160.83" as="sourcePoint" />
            <mxPoint x="103" y="114" as="targetPoint" />
          </mxGeometry>
        </mxCell>
        <mxCell id="K0u-qsTUmGktedS28R4--14" value="&lt;span&gt;Add On 2&lt;/span&gt;" style="rounded=0;whiteSpace=wrap;html=1;" vertex="1" parent="1">
          <mxGeometry x="644" y="171" width="120" height="60" as="geometry" />
        </mxCell>
        <mxCell id="K0u-qsTUmGktedS28R4--15" value="&lt;span&gt;Add On 3&lt;/span&gt;" style="rounded=0;whiteSpace=wrap;html=1;" vertex="1" parent="1">
          <mxGeometry x="644" y="242" width="120" height="60" as="geometry" />
        </mxCell>
        <mxCell id="K0u-qsTUmGktedS28R4--16" value="&lt;span&gt;Add On 4&lt;/span&gt;" style="rounded=0;whiteSpace=wrap;html=1;" vertex="1" parent="1">
          <mxGeometry x="644" y="314" width="120" height="60" as="geometry" />
        </mxCell>
      </root>
    </mxGraphModel>
  </diagram>
</mxfile>
